<?xml version="1.0" encoding="UTF-8"?>
<svg version="1.1" xmlns="http://www.w3.org/2000/svg" width="1024" height="1024">
<path d="M0 0 C337.92 0 675.84 0 1024 0 C1024 337.92 1024 675.84 1024 1024 C686.08 1024 348.16 1024 0 1024 C0 686.08 0 348.16 0 0 Z " fill="#EFEFEF" transform="translate(0,0)"/>
<path d="M0 0 C1.51663239 -0.01164688 1.51663239 -0.01164688 3.06390381 -0.02352905 C17.56011684 -0.11116337 31.50911636 1.04594058 45.8125 3.375 C46.69833771 3.51514023 47.58417542 3.65528046 48.49685669 3.79966736 C86.05504512 9.76609161 123.47013347 24.77934501 154.8125 46.375 C155.61494141 46.92704102 155.61494141 46.92704102 156.43359375 47.49023438 C168.25934643 55.66817693 179.20266487 64.67049511 189.8125 74.375 C190.82747377 75.28588242 191.84312626 76.196009 192.859375 77.10546875 C198.56922435 82.23766797 203.88623894 87.47779537 208.8125 93.375 C209.68132812 94.35597656 210.55015625 95.33695312 211.4453125 96.34765625 C225.85171167 112.64432487 237.27575169 130.37413209 247.8125 149.375 C248.18600586 150.04450684 248.55951172 150.71401367 248.94433594 151.40380859 C258.91203419 169.50788286 265.67357656 189.42786296 270.8125 209.375 C271.26882813 211.07849609 271.26882813 211.07849609 271.734375 212.81640625 C272.47658921 215.66029846 273.15910048 218.50948885 273.8125 221.375 C274.19535156 222.99921875 274.19535156 222.99921875 274.5859375 224.65625 C278.56283319 242.76884425 279.16736672 261.2767022 279.12817383 279.76123047 C279.1250013 282.87372553 279.14865339 285.98527647 279.17382812 289.09765625 C279.29616295 328.00128007 269.13007862 366.60417822 251.8125 401.375 C251.12003174 402.77637207 251.12003174 402.77637207 250.41357422 404.20605469 C244.30628742 416.47704663 237.8481116 428.26041663 229.8125 439.375 C229.07515625 440.40496094 228.3378125 441.43492187 227.578125 442.49609375 C222.00841447 450.09025581 215.98898652 457.27319714 209.8125 464.375 C209.07257813 465.22835938 208.33265625 466.08171875 207.5703125 466.9609375 C198.09250193 477.68856925 188.05739298 487.51173315 176.8125 496.375 C175.69307919 497.3046089 174.57601308 498.23705838 173.4609375 499.171875 C163.8078246 507.19751224 153.5874397 513.95066263 142.8125 520.375 C142.09787598 520.80522461 141.38325195 521.23544922 140.64697266 521.67871094 C117.71237969 535.36574266 92.76730389 545.75911008 66.68359375 551.5078125 C63.42481423 552.23783173 60.22113219 553.06106291 57 553.9375 C39.76513194 558.15043355 22.7357186 558.8796729 5.04223633 558.82104492 C1.14805883 558.8125503 -2.74463858 558.84138408 -6.63867188 558.87304688 C-21.95224909 558.91496819 -36.54973062 557.76605744 -51.59176636 554.87316895 C-54.82624578 554.25241296 -58.06950456 553.68921927 -61.31500244 553.12944031 C-81.77367556 549.36106438 -102.59850869 541.59058796 -121.1875 532.375 C-122.39696289 531.7864624 -122.39696289 531.7864624 -123.63085938 531.18603516 C-142.44219283 521.96962444 -159.95425015 510.6145856 -176.1875 497.375 C-176.70731445 496.95669922 -177.22712891 496.53839844 -177.76269531 496.10742188 C-192.90337596 483.85980679 -207.43342511 469.92764787 -219.1875 454.375 C-219.96609375 453.40175781 -220.7446875 452.42851563 -221.546875 451.42578125 C-239.55170191 428.84130481 -252.78446066 403.22474914 -263.1875 376.375 C-263.48205078 375.63830078 -263.77660156 374.90160156 -264.08007812 374.14257812 C-272.52550952 352.95777311 -277.09052982 330.02391624 -279.1875 307.375 C-279.2803125 306.38854492 -279.373125 305.40208984 -279.46875 304.38574219 C-280.20634889 295.80061791 -280.42669762 287.23927022 -280.4375 278.625 C-280.43917175 277.91210815 -280.44084351 277.19921631 -280.44256592 276.46472168 C-280.44433182 263.77915835 -279.45411621 251.39604756 -277.55908203 238.84228516 C-277.24183297 236.73576807 -276.95912147 234.6240979 -276.68359375 232.51171875 C-275.52528846 223.96530403 -273.45682568 215.681101 -271.1875 207.375 C-270.98672852 206.62895508 -270.78595703 205.88291016 -270.57910156 205.11425781 C-264.68489019 183.49004011 -256.27277583 162.8524417 -245.1875 143.375 C-244.81802246 142.71886719 -244.44854492 142.06273437 -244.06787109 141.38671875 C-236.04962199 127.24406833 -226.6372163 113.82531254 -216.1875 101.375 C-215.7656543 100.86437012 -215.34380859 100.35374023 -214.90917969 99.82763672 C-204.96597574 87.80680066 -194.26539862 76.29001252 -182.1875 66.375 C-181.70861328 65.97168457 -181.22972656 65.56836914 -180.73632812 65.15283203 C-164.59225543 51.58153923 -146.93520877 40.01995805 -128.1875 30.375 C-126.99036377 29.7569751 -126.99036377 29.7569751 -125.76904297 29.12646484 C-106.50962436 19.30238751 -86.25469835 11.7985741 -65.20263672 6.84960938 C-63.3923994 6.42325835 -61.58829422 5.97106743 -59.78515625 5.515625 C-56.26588215 4.67953079 -52.7500492 4.00305897 -49.1875 3.375 C-48.44177734 3.23819824 -47.69605469 3.10139648 -46.92773438 2.96044922 C-31.35217317 0.23441868 -15.76610729 0.05510714 0 0 Z " fill="#FAB03B" transform="translate(537.1875,241.625)"/>
<path d="M0 0 C1.01368652 0.1659668 2.02737305 0.33193359 3.07177734 0.50292969 C29.94469116 4.92801755 55.69409698 14.93538288 80 27 C80.76763672 27.37302246 81.53527344 27.74604492 82.32617188 28.13037109 C123.480845 48.2212675 123.480845 48.2212675 134 64 C130.59874743 62.74235344 127.75246602 61.30277424 124.78125 59.23046875 C101.87500113 43.63361901 76.43693014 32.98576313 50 25 C49.18402344 24.75024414 48.36804688 24.50048828 47.52734375 24.24316406 C33.61242703 20.05591241 19.3802976 17.92816322 5 16 C3.77128174 15.823479 2.54256348 15.64695801 1.27661133 15.46508789 C-3.55417064 14.86979661 -8.36384402 14.80203389 -13.2265625 14.76171875 C-14.19985001 14.75197021 -15.17313751 14.74222168 -16.17591858 14.73217773 C-38.11285531 14.55788746 -59.39183156 14.81688021 -81 19 C-82.40378906 19.26490234 -82.40378906 19.26490234 -83.8359375 19.53515625 C-106.3816178 23.94626761 -128.42472772 31.85912339 -149 42 C-150.26287842 42.61415771 -150.26287842 42.61415771 -151.55126953 43.24072266 C-173.89066331 54.19091399 -194.45983547 68.10493818 -212.7734375 84.95703125 C-214.81427926 86.82959308 -216.89463697 88.63829534 -219 90.4375 C-227.54974922 97.92068091 -234.92709561 106.13080243 -242 115 C-243.49975036 116.79187564 -244.99975117 118.58354169 -246.5 120.375 C-263.66999316 141.3970438 -277.09986026 165.80015192 -287 191 C-287.53734478 192.32438746 -288.07508763 193.64861351 -288.61328125 194.97265625 C-295.02816501 211.06907368 -299.1741784 227.93127894 -302 245 C-302.18175781 245.99515625 -302.36351562 246.9903125 -302.55078125 248.015625 C-303.08567667 251.00450627 -303.55301814 253.99672517 -304 257 C-304.28037109 258.77310547 -304.28037109 258.77310547 -304.56640625 260.58203125 C-309.44132843 294.71067821 -305.94724353 330.86480325 -297 364 C-296.66838867 365.25864868 -296.66838867 365.25864868 -296.33007812 366.54272461 C-285.56848796 406.90939224 -265.84796583 444.79107278 -238 476 C-236.95199219 477.21236328 -236.95199219 477.21236328 -235.8828125 478.44921875 C-225.55734469 490.23583767 -214.43215626 501.44515501 -202 511 C-201.02160156 511.78375 -200.04320312 512.5675 -199.03515625 513.375 C-185.05771818 524.50177636 -169.81367945 533.73252128 -154 542 C-153.27683594 542.37866211 -152.55367187 542.75732422 -151.80859375 543.14746094 C-119.23597405 559.94362843 -81.26888041 570.72010849 -44.5 571.31640625 C-43.42371338 571.33718735 -42.34742676 571.35796844 -41.23852539 571.37937927 C-37.82574385 571.44437179 -34.41289028 571.50352425 -31 571.5625 C-28.67577403 571.60573313 -26.35155513 571.6493489 -24.02734375 571.69335938 C-18.35163698 571.8000011 -12.67585976 571.90185764 -7 572 C-7 572.33 -7 572.66 -7 573 C-14.8782004 573.07074739 -22.75632101 573.12342335 -30.63476276 573.15543652 C-34.29642068 573.17083178 -37.95785536 573.19156394 -41.61938477 573.22631836 C-65.4790578 573.44640527 -89.07305703 572.58055804 -112.4375 567.1875 C-114.17410889 566.79848511 -114.17410889 566.79848511 -115.94580078 566.40161133 C-149.4108699 558.73610436 -181.55138205 545.29202881 -210 526 C-210.74507812 525.49823242 -211.49015625 524.99646484 -212.2578125 524.47949219 C-221.42384417 518.27166151 -230.13115126 511.70937135 -238.43188477 504.37939453 C-239.55299435 503.39320908 -240.68201705 502.41599024 -241.81616211 501.44482422 C-254.21449992 490.77630792 -266.10532907 479.04378862 -276 466 C-277.02062598 464.70583942 -278.04290076 463.41297823 -279.06640625 462.12109375 C-285.94680909 453.36925357 -292.21953828 444.42336558 -297.90185547 434.84960938 C-298.91258203 433.14723845 -299.94177267 431.45586581 -300.97265625 429.765625 C-320.71660405 396.52119545 -332.23730458 360.07700999 -338 322 C-338.11859375 321.28231445 -338.2371875 320.56462891 -338.359375 319.82519531 C-342.07374864 297.1299302 -341.54543412 271.70029628 -338 249 C-337.86577637 248.08959961 -337.73155273 247.17919922 -337.59326172 246.24121094 C-333.2405275 216.9434052 -325.89124034 188.76443063 -313 162 C-312.67 161.30970703 -312.34 160.61941406 -312 159.90820312 C-295.82844492 126.27010515 -272.97729477 92.97212567 -244 69 C-243.02289063 68.13503906 -242.04578125 67.27007812 -241.0390625 66.37890625 C-225.93139566 53.02159905 -209.51992274 41.94439707 -192 32 C-190.84661133 31.34088623 -190.84661133 31.34088623 -189.66992188 30.66845703 C-176.3173719 23.11402591 -162.35600323 17.3634611 -148 12 C-147.19208008 11.69578125 -146.38416016 11.3915625 -145.55175781 11.078125 C-125.84040306 3.76292639 -104.85537897 -0.57277891 -84 -3 C-82.86437622 -3.1403064 -82.86437622 -3.1403064 -81.70581055 -3.28344727 C-54.70662829 -6.20960974 -26.65978626 -4.7699813 0 0 Z " fill="#F6D6AC" transform="translate(564,228)"/>
</svg>
