<svg xmlns="http://www.w3.org/2000/svg" viewBox="0 0 813.82 664.51"><defs><style>.cls-1{fill:#fceaff;}.cls-2{fill:#c4a9ff;}.cls-3{fill:#7f47dd;}</style></defs><g id="Capa_2" data-name="Capa 2"><g id="Capa_1-2" data-name="Capa 1"><path class="cls-1" d="M406.91,656.09a333.31,333.31,0,0,1-74.65,8.42C148.76,664.51,0,515.75,0,332.26S148.76,0,332.26,0a332.73,332.73,0,0,1,74.65,8.43C259.35,42.29,149.3,174.42,149.3,332.26S259.35,622.22,406.91,656.09Z"/><ellipse class="cls-2" cx="406.91" cy="332.26" rx="257.61" ry="323.83"/><path class="cls-3" d="M813.82,332.26c0,183.49-148.76,332.25-332.26,332.25a333.31,333.31,0,0,1-74.65-8.42c147.56-33.87,257.61-166,257.61-323.83s-110-290-257.61-323.83A332.73,332.73,0,0,1,481.56,0C665.06,0,813.82,148.75,813.82,332.26Z"/></g></g></svg>